<?xml version="1.0" encoding="UTF-8"?>
<svg xmlns="http://www.w3.org/2000/svg" version="1.1" xmlns:xlink="http://www.w3.org/1999/xlink" viewBox="0 0 1000 600">
  <defs>
    <style>
      .cls-1, .cls-2, .cls-3, .cls-4 {
        fill: #13293d;
      }

      .cls-1, .cls-5 {
        font-size: 84.9px;
        letter-spacing: 0em;
      }

      .cls-1, .cls-5, .cls-6, .cls-7 {
        font-family: Alfarn, Alfarn;
      }

      .cls-2 {
        letter-spacing: 0em;
      }

      .cls-8 {
        fill: #5c5b5b;
      }

      .cls-5, .cls-9, .cls-7 {
        fill: #e8f1f2;
      }

      .cls-3 {
        font-family: ArialRoundedMTBold, 'Arial Rounded MT Bold';
        font-size: 53.2px;
        letter-spacing: .1em;
      }

      .cls-10 {
        font-family: TwCenMT-CondensedExtraBold, 'Tw Cen MT Condensed Extra Bold';
        font-size: 64.9px;
        font-weight: 700;
      }

      .cls-11 {
        fill: #007aa0;
      }

      .cls-9 {
        font-size: 81.2px;
      }

      .cls-7 {
        font-size: 54px;
      }

      .cls-12 {
        fill: #132c9e;
      }

      .cls-13 {
        display: none;
      }

      .cls-14 {
        font-family: MyriadPro-Regular, 'Myriad Pro';
      }

      .cls-15 {
        fill: #005d83;
      }

      .cls-16 {
        fill: #247ba0;
      }
    </style>
  </defs>
  <!-- Generator: Adobe Illustrator 28.7.1, SVG Export Plug-In . SVG Version: 1.2.0 Build 142)  -->
  <g>
    <g id="Camada_2" class="cls-13">
      <rect class="cls-8" x="-14.5" y="-9.5" width="1029" height="619"/>
    </g>
    <g id="Camada_1">
      <path class="cls-16" d="M312.2,304.3c-8.9,31.9-17.8,63.7-26.5,95.6-.9,3.3-2.5,4-5.6,4-20.1-.1-40.3-.2-60.4,0-4.4,0-4.8-1.1-3.7-5.1,20.8-73.5,41.5-147.1,62.1-220.7.8-2.8,1.9-4,5-4,20.8-.3,41.6-.7,62.4-1.4,5.7-.2,1.8,3.5,2.7,5.2-1.7,1.4-1.7,3.5-2.2,5.4-7.2,25.7-14.4,51.4-21.5,77-4.1,14.7-8.2,29.4-12.3,44h0Z"/>
      <path class="cls-16" d="M379.2,291.1c2.6-.8,2-3.3,2.5-5,10.2-35.7,20.3-71.5,30.1-107.3,1-3.8,2.6-4.8,6.4-4.8,20-.2,39.9-.8,59.8-1.1,1.6,0,3.7-1.1,4.9,1.1-.3.6-.8,1.1-1,1.6-9.3,33.1-18.8,66.1-27.7,99.2-2.6,9.6-6.4,18.8-7.4,28.8-5.2,14.7-8.6,29.9-13,44.8-4.9,16.9-9.5,33.8-14.1,50.8-.9,3.5-2.4,4.7-6.1,4.6-21.8-.2-43.5,0-65.3-.1-1.4,0-3,.5-4.3-.6,4.9.9,5.7-2.7,6.6-6.1,8.9-31.8,17.9-63.6,26.7-95.5.9-3.4,3.4-6.6,1.7-10.5h0Z"/>
      <path class="cls-4" d="M555.2,241c-14.2,0-28.3-.2-42.5,0-3.5,0-4.9-1.2-5.7-4.5-5-19.5-10.1-38.9-15.5-58.3-1.2-4.2-.3-4.9,3.8-4.9,65.1,0,130.3-.3,195.4-.6,3.8,0,4.3.9,3.5,4.5-4.3,19.8-8.4,39.7-12.4,59.6-.7,3.7-2.1,5.1-6.2,5-16.8-.4-33.6-.4-50.5-.5-23.3,0-46.7-.1-70-.2h0Z"/>
      <path class="cls-16" d="M555.2,241c23.3,0,46.7.1,70,.2-14.7,52.5-29.5,105-44,157.5-1.1,3.9-2.6,5.1-6.7,5.1-30.3-.2-60.7,0-91-.1-1.8,0-3.7.6-5.3-.6,9.5,0,18.9-.1,28.4,0,2.7,0,3.9-.5,4.6-3.5,3-11.9,6.6-23.6,9.8-35.4,2.4-8.9,5.7-17.6,6.9-26.8,3.7-8.3,5.3-17.3,7.9-26,6.4-22,12.4-44,18.6-66,.4-1.4.6-2.9.8-4.4h0Z"/>
      <path class="cls-4" d="M701.8,323.8c0-25.1,0-50.3,0-75.4,0-3.4.7-4.5,4.3-4.5,20.5.2,41,.2,61.5,0,3.4,0,4.2,1.1,4.2,4.2,0,50.5,0,100.9,0,151.4,0,3.1-.7,4.4-4.2,4.3-20.5-.2-41-.2-61.5,0-3.6,0-4.4-1.2-4.4-4.6.1-25.1,0-50.3,0-75.4h0Z"/>
      <path class="cls-4" d="M528,337.4c-1.2,9.2-4.5,17.9-6.9,26.8-3.2,11.8-6.8,23.5-9.8,35.4-.8,3.1-2,3.6-4.6,3.5-9.5,0-18.9,0-28.4,0-4.7-11.2-7.4-23-11-34.5-6.9-21.6-13.5-43.4-20.2-65.1,1-10,4.8-19.3,7.4-28.8,8.9-33.1,18.4-66.2,27.7-99.2.2-.6.7-1.1,1-1.6,5.6,20.3,11.3,40.5,16.8,60.8,9.4,34.2,18.7,68.4,28,102.7h0Z"/>
      <path class="cls-4" d="M379.2,291.1c1.7,3.8-.8,7.1-1.7,10.5-8.8,31.9-17.8,63.7-26.7,95.5-1,3.4-1.7,7-6.6,6.1-4.7-10.8-7.4-22.3-11-33.5-6.5-20.3-12.7-40.6-19.1-60.9-.5-1.5-1.2-3-1.9-4.5,4.1-14.7,8.2-29.4,12.3-44,7.2-25.7,14.3-51.4,21.5-77,.5-1.9.6-4,2.2-5.4,4.7,13.3,7.7,27.1,11.5,40.6,6.4,22.7,12.4,45.5,18.5,68.3.4,1.4.6,2.9.9,4.4h0Z"/>
      <path class="cls-16" d="M736.9,225.6c-10.3,0-20.6-.1-31,0-3.2,0-4.2-.9-4.2-4.2.2-15,.2-29.9,0-44.9,0-3.5,1.3-4.1,4.3-4.1,20.5.1,40.9.1,61.4,0,3.2,0,4.3.9,4.3,4.2-.2,14.8-.2,29.6,0,44.4,0,4-1.4,4.7-5,4.6-10-.2-20,0-30,0h0Z"/>
      <text class="cls-10" transform="translate(356.9 471.3)"><tspan class="cls-16" x="0" y="0" xml:space="preserve">Maximus  </tspan><tspan class="cls-2" x="258.4" y="0">Ti</tspan></text>
    </g>
    <g id="Camada_6" class="cls-13">
      <rect class="cls-4" x="398.6" y="112" width="219" height="247" rx="31" ry="31"/>
      <text class="cls-5" transform="translate(418.4 339.3)"><tspan x="0" y="0">MTi</tspan></text>
      <text class="cls-7" transform="translate(406.9 153)"><tspan x="0" y="0">...</tspan></text>
      <text class="cls-9" transform="translate(443 240.1)"><tspan class="cls-14" x="0" y="0">&lt;</tspan><tspan class="cls-6" x="48.4" y="0">/</tspan><tspan class="cls-14" x="78.9" y="0">&gt;</tspan></text>
      <text class="cls-1" transform="translate(199 449)"><tspan x="0" y="0">MAXIMUS Ti</tspan></text>
    </g>
    <g id="Camada_8" class="cls-13">
      <path class="cls-12" d="M593.5,306.7"/>
      <g>
        <g>
          <path class="cls-16" d="M472.8,365.2c6,6,15.8,6,21.8,0h0c6-6,6-15.8,0-21.8l-46.8-46.8c-6-6-15.8-6-21.8,0h0c-6,6-6,15.8,0,21.8l27.7,27.6,19.1,19.2Z"/>
          <path class="cls-4" d="M494.7,249.8c-6-6-15.8-6-21.8,0l-46.8,46.8c-5.9,5.9-6.3,15.1-.6,21.2l.2.3.3.3s0,0,0,0c0,0,0,0,0,0l27.6,27.6c-14.9-14.9,5.1-38.5,5.1-38.5h0s35.9-35.9,35.9-35.9c6-6,6-15.8,0-21.8Z"/>
        </g>
        <g>
          <path class="cls-11" d="M532.6,307.4c-6-6-15.8-6-21.8,0h0c-6,6-6,15.8,0,21.8l46.8,46.8c6,6,15.8,6,21.8,0h0c6-6,6-15.8,0-21.8l-27.7-27.6-19.1-19.2Z"/>
          <path class="cls-4" d="M510.8,422.9c6,6,15.8,6,21.8,0l46.8-46.8c5.9-5.9,6.3-15.2.6-21.2l-.2-.3-.3-.3s0,0,0,0c0,0,0,0,0,0l-27.6-27.6c14.9,14.9-5.1,38.5-5.1,38.5h0s-35.9,35.9-35.9,35.9c-6,6-6,15.8,0,21.8Z"/>
        </g>
        <path class="cls-15" d="M493.1,416.7c-2.5,7.9-10.9,12.3-18.7,9.8h0c-7.9-2.5-12.3-10.9-9.8-18.7l48.4-152.1c2.5-7.9,10.9-12.3,18.7-9.8h0c7.9,2.5,12.3,10.9,9.8,18.7l-48.4,152.1Z"/>
      </g>
      <text class="cls-3" transform="translate(341 477.8)"><tspan x="0" y="0">Maximus Ti</tspan></text>
    </g>
    <g id="Camada_3">
      <image width="1347" height="637" transform="scale(.3 .2)" xlink:href="xande-1.png"/>
    </g>
  </g>
</svg>